<svg xmlns="http://www.w3.org/2000/svg" viewBox="0 0 24 24"><path fill="none" stroke="#000" stroke-miterlimit="10" stroke-width="2" d="M13 22c0-5.846-3.612-8.755-1.666-13.367M12.198 7.622c0 0-1.198.901-1.198 2.378 0 2.653 1.901 2.995 3.472 3.209 1.571.214 4.063 2.552 4.063 2.552s2.955-.906 2.283-1.947c-3.089-5.339-1.88-6.749-4.096-8.293L16.699 3h-.094l-1.043.493c0 0-1.474-.493-3.131-.493C7.209 3 3 10.793 3 18"/><path d="M15.472 7.891A.706.706 0 1 0 15.472 9.302999999999999.706.706 0 1 0 15.472 7.891zM19 7L17.667 5 22 2z"/></svg>